<?xml version="1.0" encoding="UTF-8" standalone="no"?>
<svg
   height="64"
   style="clip-rule:evenodd;fill-rule:evenodd;stroke-linejoin:round;stroke-miterlimit:1.41421"
   version="1.1"
   viewBox="0 0 64 64"
   width="64"
   xml:space="preserve"
   id="svg2"
   inkscape:version="1.2 (dc2aedaf03, 2022-05-15)"
   sodipodi:docname="com.ktechpit.whatsie.svg"
   xmlns:inkscape="http://www.inkscape.org/namespaces/inkscape"
   xmlns:sodipodi="http://sodipodi.sourceforge.net/DTD/sodipodi-0.dtd"
   xmlns:xlink="http://www.w3.org/1999/xlink"
   xmlns="http://www.w3.org/2000/svg"
   xmlns:svg="http://www.w3.org/2000/svg"
   xmlns:rdf="http://www.w3.org/1999/02/22-rdf-syntax-ns#"
   xmlns:cc="http://creativecommons.org/ns#"
   xmlns:dc="http://purl.org/dc/elements/1.1/"><metadata
     id="metadata19"><rdf:RDF><cc:Work
         rdf:about=""><dc:format>image/svg+xml</dc:format><dc:type
           rdf:resource="http://purl.org/dc/dcmitype/StillImage" /></cc:Work></rdf:RDF></metadata><defs
     id="defs17"><filter
       inkscape:label="Fill Background"
       inkscape:menu="Fill and Transparency"
       inkscape:menu-tooltip="Adds a colorizable opaque background"
       style="color-interpolation-filters:sRGB"
       id="filter843"><feFlood
         result="result1"
         flood-color="rgb(255,0,0)"
         flood-opacity="1"
         id="feFlood845" /><feImage
         xlink:href=""
         result="result2"
         id="feImage847" /><feBlend
         result="result4"
         in2="result1"
         mode="multiply"
         id="feBlend849" /><feMerge
         result="result3"
         id="feMerge851"><feMergeNode
           in="result1"
           id="feMergeNode853" /><feMergeNode
           in="SourceGraphic"
           id="feMergeNode855" /></feMerge></filter></defs><sodipodi:namedview
     pagecolor="#ffffff"
     bordercolor="#666666"
     borderopacity="1"
     objecttolerance="10"
     gridtolerance="10"
     guidetolerance="10"
     inkscape:pageopacity="0"
     inkscape:pageshadow="2"
     inkscape:window-width="1920"
     inkscape:window-height="1007"
     id="namedview15"
     showgrid="false"
     inkscape:zoom="8.4606523"
     inkscape:cx="-6.7370692"
     inkscape:cy="27.657442"
     inkscape:window-x="1920"
     inkscape:window-y="0"
     inkscape:window-maximized="1"
     inkscape:current-layer="svg2"
     inkscape:showpageshadow="2"
     inkscape:pagecheckerboard="0"
     inkscape:deskcolor="#d1d1d1" /><rect
     height="24"
     id="Artboard1"
     style="fill:none"
     width="24"
     x="0"
     y="0" /><path
     id="path9"
     style="fill:#000000;stroke-width:2.82682"
     d="M 32 5 C 17.098857 5 5 16.969621 5 31.710938 C 5 37.047389 6.5860348 42.020918 9.3144531 46.193359 L 5 59 L 18.179688 54.65625 C 22.223999 57.046126 26.949584 58.419922 32 58.419922 C 46.901143 58.419922 59 46.452254 59 31.710938 C 59 16.969621 46.901143 5 32 5 z M 32 10.308594 C 43.939672 10.308594 53.634766 19.899327 53.634766 31.710938 C 53.634766 43.522547 43.939672 53.109375 32 53.109375 C 27.481058 53.109375 23.28555 51.738327 19.8125 49.390625 L 11.679688 52.072266 L 14.365234 44.101562 C 11.847131 40.603908 10.365234 36.327615 10.365234 31.710938 C 10.365234 19.899327 20.060328 10.308594 32 10.308594 z " /><path
     d="m 25.502947,37.266167 c -3.194526,-3.863168 -5.326105,-8.592315 -5.994,-13.720713 -0.179052,-1.428303 0.301263,-2.86223 1.310211,-3.899718 1.008947,-1.037489 2.438526,-1.568885 3.888,-1.447985 l 0.139263,0.01406 c 0,0 1.594421,0.421743 2.466947,0.655107 0.346737,0.09278 0.622421,0.348641 0.738948,0.683224 0.39221,1.152765 1.318737,3.860357 1.756421,5.134021 0.142105,0.413308 0.01137,0.871603 -0.324,1.152765 -0.662211,0.551078 -1.756421,1.462043 -2.438527,2.032802 -0.366631,0.306467 -0.483157,0.81537 -0.28421,1.245548 0.792947,1.709466 1.804737,3.306467 3.004105,4.751641 1.233474,1.411434 2.651684,2.668228 4.220527,3.731021 0.397894,0.267104 0.923684,0.238988 1.290315,-0.06748 0.684948,-0.567947 1.779158,-1.478913 2.438527,-2.02999 0.33821,-0.281162 0.815684,-0.32896 1.205052,-0.1209 1.193685,0.64105 3.734527,2.001874 4.814527,2.581068 0.315473,0.168698 0.525789,0.483599 0.557052,0.835052 0.08242,0.891284 0.235895,2.516401 0.235895,2.516401 l -0.01137,0.13777 c -0.125053,1.433926 -0.895263,2.738519 -2.100316,3.545454 -1.205053,0.809747 -2.714211,1.034677 -4.106842,0.618557 -5.036211,-1.532334 -9.415895,-4.445174 -12.72979,-8.257732 z"
     style="fill:#000000;stroke-width:2.82682"
     id="path13" /></svg>
