<?xml version="1.0" encoding="UTF-8" standalone="no"?>
<svg
   height="64"
   style="clip-rule:evenodd;fill-rule:evenodd;stroke-linejoin:round;stroke-miterlimit:1.41421"
   version="1.1"
   viewBox="0 0 64 64"
   width="64"
   xml:space="preserve"
   id="svg2"
   inkscape:version="1.3.2 (091e20ef0f, 2023-11-25, custom)"
   sodipodi:docname="com.ktechpit.whatsie-symbolic.svg"
   xmlns:inkscape="http://www.inkscape.org/namespaces/inkscape"
   xmlns:sodipodi="http://sodipodi.sourceforge.net/DTD/sodipodi-0.dtd"
   xmlns:xlink="http://www.w3.org/1999/xlink"
   xmlns="http://www.w3.org/2000/svg"
   xmlns:svg="http://www.w3.org/2000/svg"
   xmlns:rdf="http://www.w3.org/1999/02/22-rdf-syntax-ns#"
   xmlns:cc="http://creativecommons.org/ns#"
   xmlns:dc="http://purl.org/dc/elements/1.1/"><metadata
     id="metadata19"><rdf:RDF><cc:Work
         rdf:about=""><dc:format>image/svg+xml</dc:format><dc:type
           rdf:resource="http://purl.org/dc/dcmitype/StillImage" /></cc:Work></rdf:RDF></metadata><defs
     id="defs17"><filter
       inkscape:label="Fill Background"
       inkscape:menu="Fill and Transparency"
       inkscape:menu-tooltip="Adds a colorizable opaque background"
       style="color-interpolation-filters:sRGB"
       id="filter843"><feFlood
         result="result1"
         flood-color="rgb(255,0,0)"
         flood-opacity="1"
         id="feFlood845" /><feImage
         xlink:href=""
         result="result2"
         id="feImage847" /><feBlend
         result="result4"
         in2="result1"
         mode="multiply"
         id="feBlend849" /><feMerge
         result="result3"
         id="feMerge851"><feMergeNode
           in="result1"
           id="feMergeNode853" /><feMergeNode
           in="SourceGraphic"
           id="feMergeNode855" /></feMerge></filter></defs><sodipodi:namedview
     pagecolor="#ffffff"
     bordercolor="#666666"
     borderopacity="1"
     objecttolerance="10"
     gridtolerance="10"
     guidetolerance="10"
     inkscape:pageopacity="0"
     inkscape:pageshadow="2"
     inkscape:window-width="1920"
     inkscape:window-height="1014"
     id="namedview15"
     showgrid="false"
     inkscape:zoom="8.4606523"
     inkscape:cx="18.851974"
     inkscape:cy="40.304221"
     inkscape:window-x="0"
     inkscape:window-y="0"
     inkscape:window-maximized="1"
     inkscape:current-layer="svg2"
     inkscape:showpageshadow="2"
     inkscape:pagecheckerboard="0"
     inkscape:deskcolor="#d1d1d1" /><rect
     height="24"
     id="Artboard1"
     style="fill:none"
     width="24"
     x="0"
     y="0" /><path
     id="path9"
     style="fill:#000000;stroke-width:2.82682"
     d="M 32 5 C 17.098857 5 5 16.969621 5 31.710938 C 5 37.047389 6.5860348 42.020918 9.3144531 46.193359 L 5 59 L 18.179688 54.65625 C 22.223999 57.046126 26.949584 58.419922 32 58.419922 C 46.901143 58.419922 59 46.452254 59 31.710938 C 59 16.969621 46.901143 5 32 5 z M 32 10.308594 C 43.939672 10.308594 53.634766 19.899327 53.634766 31.710938 C 53.634766 43.522547 43.939672 53.109375 32 53.109375 C 27.481058 53.109375 23.28555 51.738327 19.8125 49.390625 L 11.679688 52.072266 L 14.365234 44.101562 C 11.847131 40.603908 10.365234 36.327615 10.365234 31.710938 C 10.365234 19.899327 20.060328 10.308594 32 10.308594 z " /><path
     d="m 16.831427,21.17152 q 1.756611,-0.320463 3.560698,-0.462891 0.486629,-0.03561 0.985127,-0.03561 1.353065,0 2.789213,0.272987 0.439153,2.36193 0.83083,4.723859 0.391676,2.350061 0.747746,4.759467 0.04748,0.23738 0.344201,0.308594 0.296725,0.05935 0.367939,-0.11869 0.367939,-0.973258 0.747747,-2.278847 0.391676,-1.317458 0.783353,-2.670524 0.391677,-1.364934 0.735878,-2.670523 0.35607,-1.317458 0.652794,-2.290716 1.673528,-0.142428 3.406402,-0.23738 0.379807,-0.02374 0.759615,-0.01187 1.341196,0 2.634917,0.249249 0.747746,2.36193 1.471755,4.664515 0.735878,2.302584 1.424279,4.71199 0.04748,0.11869 0.154297,0.261118 0.106821,0.130559 0.23738,0.11869 0.142428,-0.01187 0.272987,-0.225511 0.130559,-0.225511 0.213642,-0.759616 0.58158,-4.427134 1.068209,-8.972959 1.103817,-0.23738 2.314454,-0.23738 0.308594,-0.01187 0.629057,0.01187 1.554838,0.07121 3.204628,0.225511 -0.07121,1.697266 -0.284856,3.750602 -0.201773,2.041467 -0.498498,4.189755 -0.284855,2.148288 -0.617187,4.308445 -0.332332,2.148288 -0.664664,4.082934 -0.320463,1.922777 -0.617188,3.548829 -0.284855,1.614183 -0.510366,2.682392 -1.317459,0.09495 -2.504358,0.166166 -1.186899,0.07121 -2.338192,0.11869 -1.151292,0.04748 -2.314454,0.05935 -1.151292,0.01187 -2.409405,0.01187 -0.04748,-0.23738 -0.154297,-0.854567 -0.09495,-0.617188 -0.225511,-1.471756 -0.130559,-0.854567 -0.296725,-1.815956 -0.154297,-0.961388 -0.308594,-1.827825 -0.142428,-0.878305 -0.272987,-1.590445 -0.130559,-0.724008 -0.201773,-1.044471 -0.09495,-0.439153 -0.284855,-0.640926 -0.178035,-0.201773 -0.379808,-0.189904 -0.189904,0.01187 -0.367939,0.23738 -0.166166,0.213642 -0.284856,0.59345 -0.142428,0.58158 -0.403546,1.542969 -0.249248,0.961388 -0.557842,2.148288 -0.296725,1.17503 -0.617188,2.480619 -0.320463,1.293721 -0.605319,2.563703 -1.341196,0.09495 -2.46875,0.142428 -0.902044,0.03561 -1.756611,0.03561 -0.213642,0 -0.427284,0 -1.056341,-0.01187 -2.136419,-0.07121 -1.06821,-0.05935 -2.255109,-0.106821 -0.605319,-2.82482 -1.05634,-5.614034 -0.451022,-2.801082 -0.842699,-5.578427 -0.391677,-2.789214 -0.783354,-5.590296 -0.379807,-2.812952 -0.890174,-5.602165 z"
     id="text1"
     style="font-size:24.3077px;line-height:1.25;font-family:Supercell-Magic;-inkscape-font-specification:Supercell-Magic;stroke-width:0.651099"
     aria-label="W" /></svg>
